<?xml version="1.0" encoding="UTF-8"?>
<svg width="53px" height="52px" viewBox="0 0 53 52" version="1.1" xmlns="http://www.w3.org/2000/svg" xmlns:xlink="http://www.w3.org/1999/xlink">
    <title>Group</title>
    <g id="Page-1" stroke="none" stroke-width="1" fill="none" fill-rule="evenodd">
        <g id="Inicio" transform="translate(-1084.000000, -1027.000000)" fill="#FD4B0A" fill-rule="nonzero">
            <g id="Group-Copy-2" transform="translate(930.000000, 974.000000)">
                <g id="Group" transform="translate(154.000000, 53.000000)">
                    <path d="M52.5155932,37.1826441 C52.2862596,37.0164437 51.9905749,36.9717625 51.7223729,37.0627797 L49.2131525,37.8983051 L46.1953898,37.8983051 L41.379661,33.0816949 L40.0946441,22.7804068 C39.7926199,20.3377981 37.7154444,18.5045735 35.2542373,18.5084746 L30.3776949,18.5084746 C30.1135693,18.1476511 29.9695817,17.7129135 29.9661017,17.2657627 L29.9661017,15.3884746 C31.0865128,14.3889075 31.7276771,12.9591111 31.7288136,11.4576271 L31.7288136,7.93220339 C31.7280241,6.41451238 31.0731339,4.97079898 29.9317288,3.97050847 C29.9524091,3.82300367 29.963889,3.67435474 29.9661017,3.52542373 C29.9661017,1.57838597 28.3877157,0 26.440678,0 C24.4936402,0 22.9152542,1.57838597 22.9152542,3.52542373 C22.9176488,3.672883 22.9291282,3.82005457 22.9496271,3.96610169 C21.8070659,4.96740563 21.1520625,6.41297484 21.1525424,7.93220339 L21.1525424,11.4576271 C21.1536788,12.9591111 21.7948431,14.3889075 22.9152542,15.3884746 L22.9152542,17.2657627 C22.9117742,17.7129135 22.7677866,18.1476511 22.503661,18.5084746 L17.6271186,18.5084746 C15.1662086,18.5045188 13.0891449,20.3372666 12.7867119,22.7795254 L11.5016949,33.0816949 L6.6859661,37.8983051 L3.66820339,37.8983051 L1.15986441,37.0627797 C0.891675889,36.9716108 0.595919953,37.0163028 0.366644068,37.1826441 C0.136386246,37.3482985 -1.32037069e-05,37.6146503 -1.32037069e-05,37.8983051 L-1.32037069e-05,41.4237288 C-0.00183216728,41.7593717 0.187138867,42.0669195 0.487389831,42.2169492 L1.71423729,42.8338983 C0.966930123,43.5206356 0.433030467,44.4079187 0.176271186,45.3898305 C0.148949153,45.4903051 0.117220339,45.5881356 0.0969491525,45.6938983 C0.0687457627,45.8419661 0.0502372881,45.9891525 0.026440678,46.1733559 C0.0109483336,46.2830951 0.00534389684,46.3940039 0.00969491525,46.5047458 C0.00969491525,46.5241356 0.00969491525,46.5444068 0.00969491525,46.5637966 C0.00969491525,46.6131525 0.0026440678,46.6616271 0.0026440678,46.7118644 C0.0026440678,46.7867797 0.0105762712,46.8599322 0.0141016949,46.9339661 C0.0176271186,47.008 0.0141016949,47.0582373 0.0229152542,47.1199322 C0.0326101695,47.240678 0.0475932203,47.359661 0.0643389831,47.4777627 C0.0731525424,47.5341695 0.0802033898,47.5905763 0.090779661,47.6461017 C0.113694915,47.7747797 0.141898305,47.8999322 0.178915254,48.0250847 C0.190372881,48.0691525 0.200067797,48.1132203 0.213288136,48.1572881 C0.251186441,48.2921356 0.296135593,48.4216949 0.344610169,48.5547797 C0.357830508,48.5882712 0.369288136,48.6226441 0.382508475,48.6570169 C0.436271186,48.7918644 0.49620339,48.9214237 0.558779661,49.0527458 C0.573762712,49.0827119 0.586983051,49.1135593 0.602847458,49.1408814 C0.668067797,49.2669153 0.740338983,49.3894237 0.815254237,49.5092881 C0.83640678,49.5418983 0.854915254,49.5762712 0.876067797,49.6088814 C0.947457627,49.7181695 1.02589831,49.8221695 1.10522034,49.9244068 C1.13694915,49.9658305 1.16515254,50.0125424 1.19864407,50.0495593 C1.25945763,50.1244746 1.32555932,50.1932203 1.38989831,50.2646102 C1.45423729,50.336 1.49301695,50.3862373 1.55030508,50.4408814 C1.63227119,50.5237288 1.71423729,50.5968814 1.79620339,50.6700339 L1.93016949,50.7881356 C1.94867797,50.804 1.97159322,50.8145763 1.99010169,50.8295593 C2.18169156,50.9821547 2.3837214,51.1211606 2.59471186,51.2455593 C2.63877966,51.272 2.68284746,51.3010847 2.7260339,51.3257627 C2.95272142,51.451407 3.18839271,51.5601104 3.43111864,51.6509831 C3.4760678,51.6677288 3.51925424,51.6844746 3.5659661,51.700339 C3.81686281,51.7877604 4.07409065,51.8558241 4.33538983,51.9039322 C4.37505085,51.9109831 4.41559322,51.9153898 4.45525424,51.9224407 C4.73042349,51.9700529 5.00890642,51.9959858 5.28813559,52 L47.5932203,52 C47.7775038,52 47.9616508,51.989948 48.1449492,51.9709153 C48.1569485,51.9718196 48.1689975,51.9700122 48.1802034,51.9656271 C48.3511864,51.9462373 48.5204068,51.9197966 48.6861017,51.8854237 L48.7381017,51.871322 C48.8967458,51.8360678 49.0545085,51.7955254 49.2078644,51.7461695 C49.2404746,51.7355932 49.271322,51.7214915 49.3030508,51.7109153 C49.4387797,51.6642034 49.5727458,51.6148475 49.7031864,51.5575593 C49.7551864,51.5355254 49.8054237,51.5082034 49.8574237,51.4835254 C49.9623051,51.4332881 50.0680678,51.3830508 50.1694237,51.3257627 C50.2381695,51.2878644 50.3042712,51.244678 50.3712542,51.2032542 C50.4382373,51.1618305 50.5298983,51.1054237 50.6065763,51.051661 C50.6832542,50.9978983 50.7590508,50.9397288 50.8339661,50.8815593 C50.8947797,50.8348475 50.9555932,50.7872542 51.0102373,50.7370169 C51.0895593,50.6700339 51.1653559,50.6004068 51.2402712,50.5281356 C51.2913898,50.4799548 51.3416271,50.4305989 51.3909831,50.3800678 C51.4271186,50.3412881 51.467661,50.3077966 51.5029153,50.2681356 C51.5381695,50.2284746 51.5690169,50.1852881 51.6033898,50.1456271 C51.6509831,50.0909831 51.6915254,50.0345763 51.74,49.9781695 C51.8025763,49.8988475 51.8633898,49.8186441 51.9215593,49.7357966 C51.9691525,49.6679322 52.0096949,49.5965424 52.0590508,49.5260339 C52.1084068,49.4555254 52.1471864,49.3797288 52.1938983,49.3039322 C52.247661,49.2096271 52.2961356,49.1117966 52.3437288,49.0130847 C52.3701695,48.9575593 52.3992542,48.9029153 52.4239322,48.8465085 C52.4812203,48.7178305 52.5314576,48.5821017 52.5781695,48.4507797 C52.5887458,48.4199322 52.6010847,48.3908475 52.611661,48.3626441 C52.6633672,48.2034124 52.7080226,48.0406554 52.7456271,47.8743729 L52.752678,47.8470508 C52.7896949,47.6760678 52.8190734,47.5024407 52.8408136,47.3261695 L52.8408136,47.3050169 C52.8584407,47.1525424 52.8663729,46.9965424 52.8698983,46.839661 L52.8698983,46.7118644 C52.8698983,46.5884746 52.859322,46.4668475 52.8513898,46.3452203 C52.8524148,46.2951975 52.8503544,46.2451591 52.8452203,46.1953898 L52.8452203,46.1830508 C52.8390508,46.1248814 52.8275932,46.0693559 52.819661,46.0120678 C52.804678,45.9001356 52.7914576,45.7890847 52.7685424,45.6797966 C52.548066,44.5816118 51.9837935,43.5820963 51.1574237,42.8259661 L52.3842712,42.2090169 C52.6857319,42.062984 52.8783526,41.7586843 52.8813563,41.4237288 L52.8813563,37.8983051 C52.8813563,37.6148096 52.7455177,37.3484889 52.5155932,37.1826441 Z M26.440678,14.9830508 C24.4936402,14.9830508 22.9152542,13.4046649 22.9152542,11.4576271 L22.9152542,9.07267797 C23.3220077,8.36851829 24.0727713,7.93404238 24.8859661,7.93220339 L27.9953898,7.93220339 C28.8085846,7.93404238 29.5593483,8.36851829 29.9661017,9.07267797 L29.9661017,11.4576271 C29.9661017,13.4046649 28.3877157,14.9830508 26.440678,14.9830508 Z M26.440678,4.40677966 C27.8441226,4.40802253 29.1131582,5.24158435 29.6717288,6.52908475 C29.1447855,6.2916589 28.5733518,6.16908007 27.9953898,6.16949153 L24.8859661,6.16949153 C24.3085983,6.16933005 23.7377914,6.29190331 23.2113898,6.52908475 C23.7697052,5.24217063 25.0378736,4.40872371 26.440678,4.40677966 Z M26.440678,1.76271186 C27.1741312,1.76509683 27.8294634,2.22140742 28.0861695,2.90847458 C27.0176853,2.55477706 25.8636706,2.55477706 24.7951864,2.90847458 C25.0518925,2.22140742 25.7072248,1.76509683 26.440678,1.76271186 L26.440678,1.76271186 Z M26.440678,16.7457627 C27.0415428,16.7442373 27.6377163,16.6399069 28.2033898,16.4372881 L28.2033898,17.2657627 C28.2061803,18.1630988 28.5173525,19.032203 29.0847458,19.7273898 L29.0847458,20.2711864 C29.083557,20.4354182 29.0670333,20.5991801 29.0353898,20.760339 C29.028339,20.7973559 29.0186441,20.8343729 29.0098305,20.8705085 C28.9843303,20.9770817 28.9519459,21.0818892 28.9128814,21.1842712 C28.8829153,21.2609492 28.8520678,21.3367458 28.8176949,21.4081356 C28.783322,21.4795254 28.7515932,21.5341695 28.7154576,21.5949831 C28.6071554,21.7870615 28.4750874,21.9647314 28.3223729,22.1237966 C28.3082712,22.1387797 28.2932881,22.152 28.2783051,22.1661017 C28.1238887,22.3130522 27.9518945,22.4403456 27.7662373,22.5450847 C27.6992542,22.5847458 27.6322712,22.6235254 27.5608814,22.6570169 C27.5035932,22.684339 27.4463051,22.7090169 27.3846102,22.7319322 C27.2870683,22.76929 27.1872792,22.8004925 27.0858305,22.8253559 C27.0038644,22.8447458 26.9218983,22.8623729 26.8390508,22.8747119 C26.7562034,22.8870508 26.6724746,22.8949831 26.5878644,22.9002712 C26.4889294,22.9055592 26.3897825,22.9055592 26.2908475,22.9002712 C26.172654,22.8967714 26.0548511,22.8849911 25.9383051,22.8650169 C25.9204468,22.8627667 25.9027738,22.8592321 25.8854237,22.8544407 C25.8738098,22.8521499 25.8623341,22.8492074 25.8510508,22.8456271 C25.7252073,22.8169296 25.6017495,22.7786252 25.4817627,22.7310508 L25.4509153,22.7195932 L25.4218305,22.7072542 C24.4219999,22.2361666 23.7874759,21.2265714 23.7966102,20.1213559 L23.7966102,19.7273898 C24.3640034,19.032203 24.6751757,18.1630988 24.6779661,17.2657627 L24.6779661,16.4372881 C25.2436396,16.6399069 25.8398131,16.7442373 26.440678,16.7457627 Z M20.0772881,20.2711864 L22.0338983,20.2711864 C22.0338983,20.4104407 22.0621017,20.5426441 22.075322,20.6783729 C22.0806102,20.7250847 22.0823729,20.7717966 22.0894237,20.8176271 C22.2848174,22.398211 23.3189617,23.7498794 24.7934237,24.3518644 L24.8357288,24.3694915 C24.9397288,24.4073898 25.0437288,24.4444068 25.1574237,24.4823051 C25.2535809,24.5121464 25.3512552,24.5368592 25.4500339,24.556339 C25.5020339,24.5677966 25.5531525,24.583661 25.6060339,24.5933559 C25.741998,24.6236544 25.8797759,24.6451454 26.0185085,24.6576949 C26.1515932,24.6691525 26.2829153,24.675322 26.4177627,24.675322 L26.440678,24.675322 C26.4724068,24.675322 26.5014915,24.6665085 26.5288136,24.6656271 C26.7605935,24.6602938 26.9916122,24.6370152 27.2197966,24.596 C27.3079322,24.5801356 27.3898983,24.5589831 27.4753898,24.5387119 C27.5749831,24.5149153 27.6736949,24.5016949 27.7741695,24.4717288 C27.8517288,24.4452881 27.9151864,24.4073898 27.9909831,24.3783051 C28.1020339,24.336 28.2095593,24.2901695 28.3162034,24.2381695 C28.3840678,24.2064407 28.4642712,24.1826441 28.5277288,24.1500339 C28.6158644,24.100678 28.704,24.0381017 28.7921356,23.9816949 C28.8450169,23.9482034 28.8978983,23.9182373 28.9490169,23.8829831 C29.3720602,23.5881942 29.7399102,23.2212391 30.0357288,22.7989153 C30.0797966,22.7354576 30.1185763,22.6693559 30.1591186,22.6041356 C30.2128814,22.5204068 30.2719322,22.4419661 30.3195254,22.3529492 C30.3547797,22.2859661 30.3715254,22.2225085 30.407661,22.1564068 C30.4631864,22.0391864 30.5125424,21.9210847 30.5583729,21.7985763 C30.5848136,21.7280678 30.6253559,21.656678 30.6465085,21.5852881 C30.6773559,21.4892203 30.692339,21.3878644 30.7152542,21.2891525 C30.732,21.2186441 30.7505085,21.1490169 30.7646102,21.0776271 C30.8166473,20.8118856 30.8443776,20.5419575 30.8474576,20.2711864 L32.8040678,20.2711864 L33.8440678,24.4417627 C34.1624129,25.7003608 34.072285,27.0275868 33.5867119,28.2315932 L31.7905085,32.7265085 C31.1362692,34.3627299 31.2129283,36.2006221 32.0011525,37.776678 L33.8282034,41.4237288 L19.0531525,41.4237288 L20.8784407,37.7722712 C21.666665,36.1962153 21.743324,34.3583232 21.0890847,32.7221017 L19.2928814,28.2271864 C18.8072561,27.0232197 18.7168246,25.696069 19.0346441,24.4373559 L20.0772881,20.2711864 Z M31.5252203,44.5966102 L26.9271864,45.6912542 C26.0298276,44.245153 24.223541,43.6523491 22.6437966,44.2854915 L21.604678,44.7014915 C21.5279445,44.6533161 21.4440546,44.6176182 21.3561356,44.5957288 L15.4404746,43.1864407 L37.4426441,43.1864407 L31.5252203,44.5966102 Z M17.8791864,35.5583051 L18.6010169,31.2484746 L19.4515254,33.3760678 C19.919338,34.5450014 19.8648079,35.8582138 19.3016949,36.984339 L17.0824407,41.4237288 L11.115661,41.4237288 L15.8071186,38.6104407 C16.912414,37.9466175 17.6700986,36.8305555 17.8791864,35.5583051 L17.8791864,35.5583051 Z M35.7989153,41.4237288 L33.579661,36.984339 C33.016548,35.8582138 32.962018,34.5450014 33.4298305,33.3760678 L34.3314576,31.1224407 L35.0118644,34.8576271 C35.2070151,36.0061065 35.8587772,37.0266705 36.8186441,37.6867797 L42.1543729,41.4237288 L35.7989153,41.4237288 Z M2.8520678,41.4237288 L1.76271186,40.8790508 L1.76271186,39.1216271 L3.24691525,39.6151864 C3.33668649,39.645326 3.43072832,39.6608012 3.52542373,39.6610169 L7.05084746,39.6610169 C7.28457848,39.660967 7.50871827,39.5680774 7.6739661,39.4027797 L12.9621017,34.1146441 C13.1006213,33.9760519 13.189006,33.7952508 13.2132881,33.6008136 L14.535322,22.9972203 C14.6307977,22.2425298 14.9980242,21.5484966 15.5682712,21.0450169 C16.1366759,20.5437206 16.8692439,20.2683804 17.6271186,20.2711652 L18.2608136,20.2711652 L17.3239322,24.0151864 C17.0033969,25.3109653 17.0176515,26.6669746 17.3653559,27.9557288 L16.1402712,35.2709831 C16.01572,36.0334282 15.5618074,36.702369 14.899322,37.0997966 L7.6880678,41.4237288 L2.8520678,41.4237288 Z M4.62359322,50.1703051 C4.56013559,50.1579661 4.50020339,50.1376949 4.43850847,50.1218305 C4.28133429,50.0850246 4.12699638,50.0370149 3.97667797,49.9781695 C3.92555932,49.9578983 3.8779661,49.9341017 3.82861017,49.9111864 C3.67316614,49.8415042 3.52320345,49.7601885 3.38,49.6679322 C3.33945763,49.6414915 3.29891525,49.6141695 3.25925424,49.5859661 C3.06633778,49.4484864 2.88770289,49.2919964 2.7260339,49.1188475 C2.58810155,48.9736274 2.46223831,48.8174037 2.34969492,48.6517288 C2.29328814,48.5635932 2.25274576,48.4754576 2.20338983,48.387322 C2.13829808,48.2730834 2.07945448,48.1553962 2.02711864,48.0347797 C1.9839322,47.9272542 1.95661017,47.812678 1.92311864,47.6998644 C1.88571087,47.584101 1.85452503,47.4664186 1.82969492,47.347322 C1.81118644,47.2442034 1.80766102,47.1357966 1.7979661,47.0300339 C1.7822086,46.8878114 1.77485119,46.7447836 1.77582833,46.6016949 C1.78856422,46.2320679 1.85965967,45.8667742 1.98657627,45.5193898 C2.02271186,45.423322 2.05620339,45.3246102 2.10115254,45.2320678 C2.11172881,45.2091525 2.12583051,45.188 2.13728814,45.1642034 C2.71970985,44.0743203 3.80379945,43.3433436 5.03254237,43.212 C5.07661017,43.212 5.12067797,43.2005424 5.16210169,43.1987797 C5.26610169,43.1926102 5.37627119,43.1864407 5.47322034,43.1864407 L7.82908475,43.1864407 L18.8389831,45.8067119 L16.5765424,46.7118644 L15.8644068,46.7118644 C14.4041285,46.7118644 13.220339,47.8956539 13.220339,49.3559322 C13.2232602,49.6568621 13.2781227,49.9550277 13.3825085,50.2372881 L5.28813559,50.2372881 C5.06499603,50.2361321 4.84247498,50.213703 4.62359322,50.1703051 Z M15.8644068,50.2372881 C15.3776473,50.2372881 14.9830508,49.8426916 14.9830508,49.3559322 C14.9830508,48.8691728 15.3776473,48.4745763 15.8644068,48.4745763 L16.7457627,48.4745763 C16.8577426,48.4746792 16.9687164,48.4534416 17.0727458,48.412 L23.2986441,45.9186441 C23.7452084,45.7394659 24.2459223,45.7525233 24.682541,45.9547327 C25.1191597,46.156942 25.4529738,46.530376 25.6051525,46.9868475 C25.7494027,47.4197557 26.2002262,47.670978 26.6442712,47.5658983 L30.8474576,46.5682034 L30.8474576,50.2372881 L15.8644068,50.2372881 Z M32.6101695,50.237296 L32.6101695,46.148678 L45.0522712,43.1863744 L47.4037288,43.1863744 C48.771412,43.1783526 50.0364863,43.9106931 50.7105763,45.1007458 L50.7264407,45.1289492 C50.7997349,45.2738862 50.86276,45.4237917 50.9150508,45.5775593 C50.9458983,45.6656949 50.9758644,45.7538305 51.0031864,45.8507797 C51.0299587,45.9562831 51.0514319,46.0630609 51.0675254,46.1707119 C51.0861388,46.292507 51.098494,46.4151766 51.1045424,46.5382373 C51.111149,46.6627147 51.111149,46.7874548 51.1045424,46.9119322 C51.0974915,47.0317966 51.0869153,47.151661 51.0684068,47.2644746 C51.0492839,47.3802478 51.0242798,47.4949726 50.9934915,47.6082034 C50.9634982,47.7275191 50.9273136,47.8451925 50.8850847,47.9607458 C50.8441606,48.0666762 50.7973765,48.1702486 50.7449492,48.2709831 C50.6918313,48.3797817 50.6329919,48.4856926 50.568678,48.5882712 C50.504339,48.6896271 50.4285424,48.7848136 50.3536271,48.8808814 C50.2787119,48.9769492 50.2143729,49.0624407 50.1359322,49.1452881 C50.0434486,49.2385365 49.946068,49.3267969 49.8442034,49.4096949 C49.7648814,49.4757966 49.6908475,49.5463051 49.6062373,49.6053559 C49.4773224,49.6912968 49.342757,49.7684437 49.2034576,49.8362712 C49.1338305,49.8724068 49.0694915,49.9164746 48.9972203,49.9482034 C48.8170706,50.0223356 48.6310459,50.0812975 48.4410847,50.1244746 C48.399661,50.1350508 48.3617627,50.1535593 48.3194576,50.1623729 C48.0806683,50.2126973 47.8372544,50.2378068 47.5932203,50.237296 L32.6101695,50.237296 Z M47.4037288,41.4237288 L45.2267797,41.4237288 L37.8233898,36.2395932 C37.2503935,35.8451013 36.8617958,35.2351746 36.7463729,34.5491525 L35.5345085,27.8975593 C35.8653743,26.6269996 35.8729491,25.2938306 35.5565424,24.0195932 L34.619661,20.2711652 L35.2542373,20.2711652 C36.012112,20.2683804 36.74468,20.5437206 37.3130847,21.0450169 C37.8835198,21.548717 38.2507636,22.2430961 38.3460339,22.9981017 L39.6680678,33.6008136 C39.6923499,33.7952508 39.7807346,33.9760519 39.9192542,34.1146441 L45.2073898,39.4027797 C45.3726377,39.5680774 45.5967775,39.660967 45.8305085,39.6610169 L49.3559322,39.6610169 C49.4506276,39.6608012 49.5446694,39.645326 49.6344407,39.6151864 L51.1186441,39.1216271 L51.1186441,40.8790508 L50.0292881,41.4237288 L47.4037288,41.4237288 Z" id="Trazado_6"></path>
                </g>
            </g>
        </g>
    </g>
</svg>