<?xml version="1.0" encoding="UTF-8"?>
<svg width="70px" height="51px" viewBox="0 0 70 51" version="1.1" xmlns="http://www.w3.org/2000/svg" xmlns:xlink="http://www.w3.org/1999/xlink">
    <title>Trazado_7</title>
    <g id="Page-1" stroke="none" stroke-width="1" fill="none" fill-rule="evenodd">
        <g id="Inicio" transform="translate(-295.000000, -1028.000000)" fill="#FD4B0A" fill-rule="nonzero">
            <g id="Group" transform="translate(150.000000, 974.000000)">
                <path d="M179.829664,54.2829977 C179.010426,54.3727638 178.395453,55.0734373 178.412724,55.8973971 L178.412724,62.2573495 C178.412724,63.1363745 179.125315,63.848965 180.00434,63.848965 C180.883365,63.848965 181.595955,63.1363745 181.595955,62.2573495 L181.595955,55.8973971 C181.605613,55.439345 181.417282,54.999375 181.079199,54.6901752 C180.741115,54.3809754 180.28612,54.2325802 179.830748,54.2829977 L179.829664,54.2829977 Z M162.27524,57.460804 C161.74399,57.5278808 161.282221,57.8579413 161.046783,58.3388725 C160.811345,58.8198038 160.833888,59.386957 161.106753,59.8476848 L164.2889,65.4123719 C164.720922,66.1814439 165.694601,66.4546765 166.463673,66.022654 C167.232745,65.5906315 167.505978,64.616952 167.073955,63.8478801 L163.891809,58.2831929 C163.577132,57.6988175 162.932859,57.3710595 162.27524,57.460804 L162.27524,57.460804 Z M197.359133,57.460804 C196.834428,57.5114422 196.368834,57.8185882 196.115785,58.281023 L192.933639,63.8457102 C192.501617,64.6147821 192.774849,65.5884616 193.543921,66.0204841 C194.312993,66.4525066 195.286673,66.179274 195.718695,65.4102021 L198.900841,59.8455149 C199.205176,59.3273278 199.191471,58.6818572 198.865415,58.1770553 C198.539358,57.6722533 197.956629,57.3943205 197.359133,57.4586341 L197.359133,57.460804 Z M180,70.0246014 C166.539077,70.0246014 154.337776,76.3379012 145.390228,86.4691253 C144.869924,87.0672586 144.869924,87.9573428 145.390228,88.5554761 C154.338861,98.6823605 166.546672,105 180,105 C193.453328,105 205.663309,98.6812755 214.609772,88.5554761 C215.130076,87.9573428 215.130076,87.0672586 214.609772,86.4691253 C205.661139,76.3368163 193.459838,70.0246014 180,70.0246014 L180,70.0246014 Z M180,72.8669846 C192.270404,72.8669846 203.42249,78.3974953 211.941476,87.5128432 C203.424712,96.6193067 192.265962,102.158702 180,102.158702 C167.734038,102.158702 156.576399,96.6181962 148.058524,87.5128432 C156.580841,78.3997164 167.732927,72.8680951 180.003332,72.8680951 L180,72.8669846 Z M180,77.1787342 C174.293903,77.1841258 169.672064,81.8132487 169.675655,87.5193467 C169.679251,93.2254447 174.306917,97.8487426 180.013016,97.8469476 C185.719115,97.8451516 190.343873,93.2189423 190.343873,87.5128432 C190.326575,81.8104654 185.705645,77.1934146 180.003255,77.1809041 L180,77.1787342 Z M180.000639,79.6579241 C184.337858,79.6618706 187.85104,83.1803834 187.848411,87.5176039 C187.845779,91.8548244 184.328332,95.3690733 179.991111,95.3677593 C175.65389,95.3664446 172.138546,91.8500646 172.138546,87.5128433 C172.133158,85.4262928 172.96054,83.4238324 174.437188,81.9496438 C175.913837,80.4754553 177.917674,79.6514138 180.004213,79.6603066 L180.000639,79.6579241 Z" id="Trazado_7"></path>
            </g>
        </g>
    </g>
</svg>