<?xml version="1.0" encoding="UTF-8"?>
<svg width="70px" height="54px" viewBox="0 0 70 54" version="1.1" xmlns="http://www.w3.org/2000/svg" xmlns:xlink="http://www.w3.org/1999/xlink">
    <title>Group</title>
    <g id="Page-1" stroke="none" stroke-width="1" fill="none" fill-rule="evenodd">
        <g id="Inicio" transform="translate(-685.000000, -1026.000000)" fill="#FD4B0A" fill-rule="nonzero">
            <g id="Group-Copy" transform="translate(540.000000, 974.000000)">
                <g id="Group" transform="translate(145.000000, 52.972973)">
                    <path d="M69.0051802,42.9017033 C68.6745918,42.6079673 60.8596988,35.7685811 51.0927083,35.7685811 L50.8759291,35.7685811 C47.2338758,35.8563075 43.6592851,36.7698758 40.4217483,38.4403857 C43.2671066,33.8030396 44.839919,28.4976483 44.9817005,23.0588119 C44.9817005,10.933263 35.8769707,0.765230856 35.486768,0.338175676 C35.2761558,0.121509111 34.9868467,-0.000734986997 34.6846847,-0.000734986997 C34.3825227,-0.000734986997 34.0932135,0.121509111 33.8826014,0.338175676 C33.4945664,0.765230856 24.3876689,10.933263 24.3876689,23.0588119 C24.5313787,28.4960975 26.1052836,33.7995214 28.9508727,38.4349662 C25.7128885,36.7663375 22.1383208,35.8546281 18.496692,35.7685811 L18.2799127,35.7685811 C8.50967061,35.7685811 0.69477759,42.6079673 0.364189189,42.9017033 C0.135801609,43.1045204 0.00358926889,43.3942869 9.41109854e-06,43.6997101 C-0.00342721082,44.0051333 0.122094325,44.2978603 0.34576295,44.5058699 C0.672015766,44.8093609 8.43704955,51.9186374 18.308094,52.027027 L18.5248733,52.027027 C26.0492821,52.027027 32.1331926,47.9645833 34.6846847,45.9572072 C37.2318412,47.9624155 43.3135839,52.027027 50.8412444,52.027027 L51.0580236,52.027027 C60.9290681,51.9186374 68.6941019,44.8104448 69.0203547,44.5069538 C69.2440234,44.2989442 69.3695449,44.0062172 69.3661083,43.700794 C69.3625284,43.3953708 69.2303161,43.1056043 69.0019285,42.9027872 L69.0051802,42.9017033 Z M18.3308559,49.8592342 C11.2172438,49.7822776 5.09431306,45.5485783 2.79536881,43.730884 C5.11815878,41.9793074 11.246509,37.9363739 18.2809966,37.9363739 L18.4739302,37.9363739 C25.5983812,38.0111627 31.4254082,42.2611205 33.5747748,44.0582207 C31.3842202,45.8054617 25.4715653,49.9123452 18.3308559,49.8592342 Z M34.6846847,42.8009009 C32.5168919,40.2223114 26.5554617,32.306616 26.5554617,23.0588119 C26.5554617,13.8110079 32.4919623,5.51378097 34.6846847,2.75960023 C36.8795749,5.51052928 42.8139077,13.8055884 42.8139077,23.0588119 C42.8139077,32.3120355 36.8524775,40.2223114 34.6846847,42.8009009 Z M51.0385135,49.8592342 C43.9151464,49.9199324 37.9851492,45.8076295 35.7945946,44.0560529 C37.9439611,42.2589527 43.7709882,38.0100788 50.8954392,37.9342061 L51.0883727,37.9342061 C58.1239443,37.9342061 64.2544623,41.983643 66.5761684,43.7341357 C64.2750563,45.5496622 58.1705518,49.7822776 51.0385135,49.8592342 Z" id="Trazado_2"></path>
                    <path d="M11.3711571,34.555701 C12.1493947,34.3335023 12.9525619,34.1416526 13.7806588,33.9888232 C11.2291374,31.1157476 9.24330853,27.7865423 7.92761824,24.1763091 C10.4942849,23.7828547 16.8101492,23.2300676 22.3802928,25.9538992 C22.2928585,25.1482029 22.2415541,24.3294998 22.2263795,23.49779 C14.6770411,20.3360642 6.62585867,22.189527 6.24757883,22.2805743 C5.9601382,22.3491116 5.71314085,22.5320342 5.56376442,22.7869972 C5.414388,23.0419603 5.37558373,23.346858 5.45633446,23.6311092 C6.70811118,27.6186805 8.71630551,31.3277864 11.3711571,34.555701 L11.3711571,34.555701 Z" id="Trazado_3"></path>
                    <path d="M61.4384994,24.177393 C60.118337,27.8043787 58.1210673,31.1475065 55.552942,34.0289274 C56.3788711,34.1839245 57.1787866,34.377942 57.9624437,34.5990569 C60.6337677,31.3614775 62.6530074,27.6373311 63.9086993,23.6321931 C63.98945,23.3479419 63.9506458,23.0430442 63.8012694,22.7880811 C63.6518929,22.5331181 63.4048956,22.3501955 63.117455,22.2816582 C62.7391751,22.1916948 54.6879927,20.3371481 47.1386543,23.4988739 C47.1249249,24.3298611 47.0736205,25.1485642 46.984741,25.9549831 C52.5559685,23.2311515 58.8718328,23.7839386 61.4384994,24.177393 Z" id="Trazado_4"></path>
                    <path d="M34.6846847,19.5101351 C32.2902069,19.5101351 30.3490991,21.4512429 30.3490991,23.8457207 C30.3490991,26.2401985 32.2902069,28.1813063 34.6846847,28.1813063 C37.0791625,28.1813063 39.0202703,26.2401985 39.0202703,23.8457207 C39.0202703,21.4512429 37.0791625,19.5101351 34.6846847,19.5101351 Z M34.6846847,26.0135135 C33.4874458,26.0135135 32.5168919,25.0429596 32.5168919,23.8457207 C32.5168919,22.6484818 33.4874458,21.6779279 34.6846847,21.6779279 C35.8819236,21.6779279 36.8524775,22.6484818 36.8524775,23.8457207 C36.8524775,25.0429596 35.8819236,26.0135135 34.6846847,26.0135135 Z" id="Trazado_5"></path>
                </g>
            </g>
        </g>
    </g>
</svg>